<?xml version="1.0" encoding="iso-8859-1"?>
<!-- Uploaded to: SVG Repo, www.svgrepo.com, Generator: SVG Repo Mixer Tools -->
<svg height="16px" width="16px" version="1.1" id="Layer_1" xmlns="http://www.w3.org/2000/svg" xmlns:xlink="http://www.w3.org/1999/xlink" 
	 viewBox="0 0 512.001 512.001" xml:space="preserve">
<polygon style="fill:#A0BF7C;" points="472.709,115.2 39.284,115.2 11.849,499.201 500.144,499.201 "/>
<g>
	<circle style="fill:#FEDEA1;" cx="345.596" cy="192" r="25.6"/>
	<circle style="fill:#FEDEA1;" cx="166.396" cy="192" r="25.6"/>
</g>
<g>
	<path style="fill:#573A32;" d="M113.993,356.677c-11.759-2.372-16.239-5.077-17.86-6.477c-1.263-1.075-2.714-2.876-2.714-7.228
		c0-3.004,0.99-4.873,3.379-6.426c3.174-2.022,8.004-3.072,14.327-3.072c5.564,0,9.66,0.947,12.16,2.85
		c2.287,1.724,3.874,4.924,4.591,9.148c0.623,5.001,3.277,7.876,5.385,9.378c2.492,1.826,5.163,2.628,8.934,2.628l0.836-0.026
		c3.729-0.546,6.997-2.551,8.713-5.248c1.587-2.125,3.311-5.777,2.475-11.025c-1.459-8.977-5.111-16.375-10.871-21.999
		c-7.603-7.322-18.253-11.051-31.65-11.051c-13.039,0-23.689,2.876-31.65,8.602c-8.499,6.323-12.988,15.496-12.988,26.547
		c0,11.247,4.429,20.625,12.834,27.076c6.315,4.702,15.753,8.499,28.877,11.597c13.961,3.149,18.85,6.349,20.523,7.979
		c1.647,1.604,2.56,4.975,2.56,9.498c0,2.321-0.674,5.103-5.641,7.927c-4.147,2.423-8.815,3.601-14.234,3.601
		c-7.202,0-12.484-1.271-15.71-3.772c-3.234-2.423-4.975-6.528-5.504-12.954c-0.435-3.729-1.971-6.827-4.574-9.199
		c-2.398-2.125-5.504-3.149-9.609-3.149c0,0-0.009,0-0.026,0c-3.209,0.273-6.076,1.604-8.26,3.797
		c-2.825,2.799-4.147,6.673-3.661,10.573c1.161,13.628,6.238,23.953,15.078,30.703c7.859,6.204,18.816,9.353,32.563,9.353
		c12.297,0,22.758-3.098,31.113-9.225c9.711-6.972,14.839-16.896,14.839-28.646c0-11.699-3.703-21.026-11.017-27.725
		C140.276,364.374,129.413,359.8,113.993,356.677z"/>
	<path style="fill:#573A32;" d="M230.763,320.675c-1.348-3.874-3.541-6.946-6.511-9.148c-5.726-4.275-14.012-4.224-19.814,0.051
		c-2.935,2.176-5.086,5.222-6.391,9.003l-35.379,97.152c-1.698,3.874-1.673,7.902,0.034,11.324c1.604,3.226,4.241,5.521,7.799,6.673
		l3.686,0.623l0.213,0.026c2.125,0,4.164-0.529,6.05-1.553c3.089-1.673,5.35-4.275,6.758-7.799l10.172-27.904h34.074l10.163,28.126
		c1.348,3.379,3.627,5.897,7.296,7.953c1.698,0.7,3.413,1.075,5.316,1.075c0.051,0,0.085,0,0.137-0.026l4.053-0.674
		c3.413-1.152,6.101-3.524,7.578-6.75c1.527-3.302,1.673-6.852,0.41-10.65L230.763,320.675z M206.588,373.923l7.834-21.402
		l7.765,21.402H206.588z"/>
	<path style="fill:#573A32;" d="M341.552,408.5l-42.01,0.998v-87.979c0-5.129-2.347-8.303-4.335-10.078
		c-4.975-4.429-12.826-4.378-18.065,0.35c-1.749,1.724-3.814,4.821-3.814,9.728v89.847c0,5.871,1.826,10.974,5.41,15.147
		c4.139,4.804,9.984,7.322,16.896,7.322h45.935c3.763,0,7.074-1.323,9.566-3.849c2.389-2.347,3.686-5.504,3.686-8.823
		c0-3.524-1.34-6.673-4.053-9.353C349.086,410.3,346.117,408.5,341.552,408.5z"/>
	<path style="fill:#573A32;" d="M437.756,408.5l-50.526,0.998v-26.496h43.639c3.738,0,7.049-1.323,9.566-3.823
		c2.389-2.347,3.686-5.504,3.686-8.849c0-3.524-1.34-6.673-4.062-9.378c-1.741-1.502-4.736-3.302-9.19-3.302h-43.913l-0.7-21.726
		h49.647c3.661,0,6.912-1.323,9.421-3.823c2.372-2.398,3.678-5.521,3.678-8.849c0-3.524-1.34-6.673-4.053-9.353
		c-2.441-2.176-5.564-3.328-9.054-3.328h-52.565c-6.912,0-12.774,2.526-16.964,7.347c-3.558,4.198-5.359,9.327-5.359,15.249v78.199
		c0,5.854,1.809,10.948,5.427,15.147c4.122,4.804,9.975,7.322,16.896,7.322h54.434c3.746,0,7.066-1.323,9.566-3.849
		c2.389-2.347,3.686-5.504,3.686-8.823c0-3.524-1.34-6.647-4.053-9.353C445.266,410.3,442.288,408.5,437.756,408.5z"/>
	<path style="fill:#573A32;" d="M486.328,126.174c-0.956-13.397-12.1-23.774-25.532-23.774h-102.4
		c0-56.559-45.841-102.4-102.4-102.4s-102.4,45.841-102.4,102.4h-102.4c-13.431,0-24.576,10.377-25.532,23.774l-25.6,358.4
		c-0.503,7.091,1.954,14.071,6.801,19.268C11.704,509.048,18.488,512,25.596,512h460.8c7.108,0,13.892-2.953,18.739-8.158
		c4.838-5.197,7.305-12.177,6.801-19.268L486.328,126.174z M345.596,179.2c7.057,0,12.8,5.743,12.8,12.8
		c0,7.057-5.743,12.8-12.8,12.8s-12.8-5.743-12.8-12.8C332.796,184.943,338.539,179.2,345.596,179.2z M255.996,25.6
		c42.351,0,76.8,34.449,76.8,76.8h-153.6C179.196,60.058,213.645,25.6,255.996,25.6z M166.396,179.2c7.057,0,12.8,5.743,12.8,12.8
		c0,7.057-5.743,12.8-12.8,12.8s-12.8-5.743-12.8-12.8C153.596,184.943,159.339,179.2,166.396,179.2z M25.596,486.4l25.6-358.4
		h102.4v27.947c-14.882,5.291-25.6,19.354-25.6,36.053c0,21.205,17.195,38.4,38.4,38.4s38.4-17.195,38.4-38.4
		c0-16.691-10.718-30.763-25.6-36.053V128h153.6v27.947c-14.882,5.291-25.6,19.354-25.6,36.053c0,21.205,17.195,38.4,38.4,38.4
		c21.205,0,38.4-17.195,38.4-38.4c0-16.691-10.718-30.763-25.6-36.053V128h102.4l25.6,358.4H25.596z"/>
</g>
</svg>